<svg width="345" height="395" viewBox="0 0 345 395" fill="none" xmlns="http://www.w3.org/2000/svg">
<g filter="url(#filter0_d_0_1)">
<path d="M165.514 2.14541C169.395 -0.715138 174.687 -0.715142 178.567 2.14541L250.024 54.8147C250.683 55.3008 251.395 55.7116 252.145 56.0396L333.486 91.5879C337.904 93.5186 340.55 98.101 340.013 102.892L330.128 191.11C330.037 191.924 330.037 192.746 330.128 193.56L340.013 281.777C340.55 286.568 337.904 291.151 333.486 293.082L252.145 328.63C251.395 328.958 250.683 329.369 250.024 329.855L178.567 382.524C174.687 385.385 169.395 385.385 165.514 382.524L94.0581 329.855C93.3987 329.369 92.6871 328.958 91.9365 328.63L10.5954 293.082C6.17762 291.151 3.53193 286.568 4.06879 281.777L13.9536 193.56C14.0449 192.746 14.0449 191.924 13.9536 191.11L4.06879 102.892C3.53193 98.101 6.17762 93.5186 10.5954 91.5879L91.9365 56.0396C92.6871 55.7116 93.3987 55.3008 94.0581 54.8147L165.514 2.14541Z" fill="#423268"/>
</g>
<g filter="url(#filter1_i_0_1)">
<path d="M172.041 69.3348L225.095 139.565L295.041 192.835L225.095 246.105L172.041 316.335L118.987 246.105L49.0409 192.835L118.987 139.565L172.041 69.3348Z" fill="#BAA7DF"/>
</g>
<path d="M172.041 233.168C166.46 233.168 161.186 232.096 156.218 229.952C151.25 227.809 146.911 224.882 143.202 221.173C139.493 217.464 136.567 213.126 134.423 208.158C132.279 203.19 131.208 197.915 131.208 192.335C131.208 186.686 132.279 181.395 134.423 176.461C136.567 171.527 139.493 167.205 143.202 163.496C146.911 159.787 151.25 156.861 156.218 154.717C161.186 152.573 166.46 151.501 172.041 151.501C177.69 151.501 182.981 152.573 187.915 154.717C192.849 156.861 197.17 159.787 200.879 163.496C204.588 167.205 207.515 171.527 209.659 176.461C211.802 181.395 212.874 186.686 212.874 192.335C212.874 197.915 211.802 203.19 209.659 208.158C207.515 213.126 204.588 217.464 200.879 221.173C197.17 224.882 192.849 227.809 187.915 229.952C182.981 232.096 177.69 233.168 172.041 233.168ZM172.041 224.797C173.81 222.347 175.342 219.795 176.635 217.141C177.928 214.487 178.983 211.663 179.799 208.668H164.283C165.099 211.663 166.154 214.487 167.447 217.141C168.74 219.795 170.271 222.347 172.041 224.797ZM161.424 223.164C160.199 220.918 159.127 218.587 158.209 216.171C157.29 213.755 156.524 211.254 155.912 208.668H143.866C145.84 212.071 148.307 215.031 151.267 217.549C154.227 220.067 157.613 221.939 161.424 223.164ZM182.658 223.164C186.469 221.939 189.854 220.067 192.815 217.549C195.775 215.031 198.242 212.071 200.216 208.668H188.17C187.558 211.254 186.792 213.755 185.873 216.171C184.954 218.587 183.883 220.918 182.658 223.164ZM140.395 200.501H154.278C154.074 199.14 153.921 197.796 153.819 196.469C153.717 195.142 153.666 193.764 153.666 192.335C153.666 190.906 153.717 189.527 153.819 188.2C153.921 186.873 154.074 185.529 154.278 184.168H140.395C140.055 185.529 139.8 186.873 139.629 188.2C139.459 189.527 139.374 190.906 139.374 192.335C139.374 193.764 139.459 195.142 139.629 196.469C139.8 197.796 140.055 199.14 140.395 200.501ZM162.445 200.501H181.637C181.841 199.14 181.994 197.796 182.096 196.469C182.198 195.142 182.249 193.764 182.249 192.335C182.249 190.906 182.198 189.527 182.096 188.2C181.994 186.873 181.841 185.529 181.637 184.168H162.445C162.241 185.529 162.088 186.873 161.986 188.2C161.884 189.527 161.833 190.906 161.833 192.335C161.833 193.764 161.884 195.142 161.986 196.469C162.088 197.796 162.241 199.14 162.445 200.501ZM189.803 200.501H203.687C204.027 199.14 204.282 197.796 204.452 196.469C204.622 195.142 204.708 193.764 204.708 192.335C204.708 190.906 204.622 189.527 204.452 188.2C204.282 186.873 204.027 185.529 203.687 184.168H189.803C190.008 185.529 190.161 186.873 190.263 188.2C190.365 189.527 190.416 190.906 190.416 192.335C190.416 193.764 190.365 195.142 190.263 196.469C190.161 197.796 190.008 199.14 189.803 200.501ZM188.17 176.001H200.216C198.242 172.599 195.775 169.638 192.815 167.12C189.854 164.602 186.469 162.731 182.658 161.506C183.883 163.751 184.954 166.082 185.873 168.498C186.792 170.914 187.558 173.415 188.17 176.001ZM164.283 176.001H179.799C178.983 173.007 177.928 170.183 176.635 167.529C175.342 164.874 173.81 162.322 172.041 159.872C170.271 162.322 168.74 164.874 167.447 167.529C166.154 170.183 165.099 173.007 164.283 176.001ZM143.866 176.001H155.912C156.524 173.415 157.29 170.914 158.209 168.498C159.127 166.082 160.199 163.751 161.424 161.506C157.613 162.731 154.227 164.602 151.267 167.12C148.307 169.638 145.84 172.599 143.866 176.001Z" fill="#ECD3FD"/>
<defs>
<filter id="filter0_d_0_1" x="0" y="0" width="344.082" height="394.67" filterUnits="userSpaceOnUse" color-interpolation-filters="sRGB">
<feFlood flood-opacity="0" result="BackgroundImageFix"/>
<feColorMatrix in="SourceAlpha" type="matrix" values="0 0 0 0 0 0 0 0 0 0 0 0 0 0 0 0 0 0 127 0" result="hardAlpha"/>
<feOffset dy="6"/>
<feGaussianBlur stdDeviation="2"/>
<feComposite in2="hardAlpha" operator="out"/>
<feColorMatrix type="matrix" values="0 0 0 0 0 0 0 0 0 0 0 0 0 0 0 0 0 0 0.25 0"/>
<feBlend mode="normal" in2="BackgroundImageFix" result="effect1_dropShadow_0_1"/>
<feBlend mode="normal" in="SourceGraphic" in2="effect1_dropShadow_0_1" result="shape"/>
</filter>
<filter id="filter1_i_0_1" x="49.0409" y="69.3348" width="246" height="251" filterUnits="userSpaceOnUse" color-interpolation-filters="sRGB">
<feFlood flood-opacity="0" result="BackgroundImageFix"/>
<feBlend mode="normal" in="SourceGraphic" in2="BackgroundImageFix" result="shape"/>
<feColorMatrix in="SourceAlpha" type="matrix" values="0 0 0 0 0 0 0 0 0 0 0 0 0 0 0 0 0 0 127 0" result="hardAlpha"/>
<feOffset dy="6"/>
<feGaussianBlur stdDeviation="2"/>
<feComposite in2="hardAlpha" operator="arithmetic" k2="-1" k3="1"/>
<feColorMatrix type="matrix" values="0 0 0 0 0 0 0 0 0 0 0 0 0 0 0 0 0 0 0.25 0"/>
<feBlend mode="normal" in2="shape" result="effect1_innerShadow_0_1"/>
</filter>
</defs>
</svg>
